<svg xmlns="http://www.w3.org/2000/svg" xmlns:xlink="http://www.w3.org/1999/xlink" width="400" zoomAndPan="magnify" viewBox="0 0 300 72.749999" height="97" preserveAspectRatio="xMidYMid meet" version="1.0"><defs><g><g id="id1"/></g><clipPath id="id2"><path d="M 13.132812 3.40625 L 90.398438 3.40625 L 90.398438 59.300781 L 13.132812 59.300781 Z M 13.132812 3.40625 " clip-rule="nonzero"/></clipPath><clipPath id="id3"><path d="M 6.039062 12.6875 L 63.429688 12.6875 L 63.429688 69.925781 L 6.039062 69.925781 Z M 6.039062 12.6875 " clip-rule="nonzero"/></clipPath><clipPath id="id4"><path d="M 13.132812 3.40625 L 90.398438 3.40625 L 90.398438 59.300781 L 13.132812 59.300781 Z M 13.132812 3.40625 " clip-rule="nonzero"/></clipPath><clipPath id="id5"><path d="M 6.039062 12.6875 L 11.582031 12.6875 L 11.582031 69.925781 L 6.039062 69.925781 Z M 6.039062 12.6875 " clip-rule="nonzero"/></clipPath><clipPath id="id6"><path d="M 57.890625 25.5 L 63.429688 25.5 L 63.429688 69.925781 L 57.890625 69.925781 Z M 57.890625 25.5 " clip-rule="nonzero"/></clipPath></defs><g clip-path="url(#id2)"><path fill="rgb(79.219055%, 9.408569%, 25.878906%)" d="M 90.398438 3.476562 C 80.046875 6.984375 70.957031 13.832031 63.378906 21.566406 C 61.484375 23.496094 59.683594 25.484375 57.976562 27.480469 C 44.921875 42.832031 37.5625 59.148438 37.5625 59.148438 L 13.246094 25.925781 L 33.359375 38.796875 C 39.554688 29.851562 45.933594 23.148438 52.09375 18.140625 C 54.636719 16.070312 57.148438 14.285156 59.582031 12.753906 C 76.683594 1.992188 90.398438 3.476562 90.398438 3.476562 " fill-opacity="1" fill-rule="nonzero"/></g><g clip-path="url(#id3)"><path fill="rgb(15.289307%, 27.059937%, 59.609985%)" d="M 63.378906 25.539062 L 63.378906 69.925781 L 6.039062 69.925781 L 6.039062 12.753906 L 54.585938 12.753906 C 53.425781 13.59375 52.253906 14.488281 51.070312 15.449219 C 50.035156 16.289062 48.988281 17.199219 47.941406 18.140625 L 11.445312 18.140625 L 11.445312 64.539062 L 57.976562 64.539062 L 57.976562 31.65625 C 58.4375 31.09375 58.902344 30.535156 59.378906 29.976562 C 60.652344 28.480469 61.996094 27.003906 63.378906 25.539062 " fill-opacity="1" fill-rule="nonzero"/></g><g clip-path="url(#id4)"><path fill="rgb(67.83905%, 9.01947%, 25.099182%)" d="M 90.398438 3.476562 C 80.046875 6.984375 70.957031 13.832031 63.378906 21.566406 C 61.484375 23.496094 59.683594 25.484375 57.976562 27.480469 C 44.921875 42.832031 37.5625 59.148438 37.5625 59.148438 L 13.246094 25.925781 L 36.476562 47.777344 C 36.476562 47.777344 54.582031 10.535156 90.398438 3.476562 " fill-opacity="1" fill-rule="nonzero"/></g><g clip-path="url(#id5)"><path fill="rgb(10.978699%, 16.859436%, 28.239441%)" d="M 11.445312 18.140625 L 11.445312 64.539062 L 6.039062 69.925781 L 6.039062 12.753906 L 11.445312 18.140625 " fill-opacity="1" fill-rule="nonzero"/></g><g clip-path="url(#id6)"><path fill="rgb(10.978699%, 16.859436%, 28.239441%)" d="M 63.378906 25.539062 L 63.378906 69.925781 L 57.976562 64.539062 L 57.976562 31.65625 C 58.4375 31.09375 58.902344 30.535156 59.378906 29.976562 C 60.652344 28.480469 61.996094 27.003906 63.378906 25.539062 " fill-opacity="1" fill-rule="nonzero"/></g><g fill="rgb(15.289307%, 27.059937%, 59.609985%)" fill-opacity="1"><g transform="translate(70.34809, 65.59154)"><g><path d="M 43.875 -41.6875 L 29.515625 0 L 14.671875 0 L 0.234375 -41.6875 L 12.65625 -41.6875 L 22.125 -11.59375 L 31.515625 -41.6875 Z M 43.875 -41.6875 "/></g></g></g><g fill="rgb(15.289307%, 27.059937%, 59.609985%)" fill-opacity="1"><g transform="translate(114.526015, 65.59154)"><g><path d="M 18.75 0.40625 C 15.4375 0.40625 12.46875 -0.28125 9.84375 -1.65625 C 7.226562 -3.03125 5.171875 -5 3.671875 -7.5625 C 2.171875 -10.132812 1.421875 -13.15625 1.421875 -16.625 C 1.421875 -20.050781 2.175781 -23.046875 3.6875 -25.609375 C 5.207031 -28.171875 7.28125 -30.140625 9.90625 -31.515625 C 12.53125 -32.898438 15.5 -33.59375 18.8125 -33.59375 C 22.125 -33.59375 25.085938 -32.898438 27.703125 -31.515625 C 30.328125 -30.140625 32.394531 -28.171875 33.90625 -25.609375 C 35.425781 -23.046875 36.1875 -20.050781 36.1875 -16.625 C 36.1875 -13.1875 35.425781 -10.175781 33.90625 -7.59375 C 32.394531 -5.007812 30.316406 -3.03125 27.671875 -1.65625 C 25.035156 -0.28125 22.0625 0.40625 18.75 0.40625 Z M 18.75 -9.640625 C 20.363281 -9.640625 21.710938 -10.238281 22.796875 -11.4375 C 23.878906 -12.644531 24.421875 -14.375 24.421875 -16.625 C 24.421875 -18.863281 23.878906 -20.570312 22.796875 -21.75 C 21.710938 -22.9375 20.382812 -23.53125 18.8125 -23.53125 C 17.226562 -23.53125 15.90625 -22.9375 14.84375 -21.75 C 13.78125 -20.570312 13.25 -18.863281 13.25 -16.625 C 13.25 -14.332031 13.757812 -12.59375 14.78125 -11.40625 C 15.8125 -10.226562 17.132812 -9.640625 18.75 -9.640625 Z M 18.75 -9.640625 "/></g></g></g><g fill="rgb(15.289307%, 27.059937%, 59.609985%)" fill-opacity="1"><g transform="translate(152.13935, 65.59154)"><g><path d="M 22.890625 -9.875 L 22.890625 0 L 17.859375 0 C 9.378906 0 5.140625 -4.195312 5.140625 -12.59375 L 5.140625 -23.53125 L 1.0625 -23.53125 L 1.0625 -33.171875 L 5.140625 -33.171875 L 5.140625 -41.21875 L 16.796875 -41.21875 L 16.796875 -33.171875 L 22.828125 -33.171875 L 22.828125 -23.53125 L 16.796875 -23.53125 L 16.796875 -12.421875 C 16.796875 -11.515625 17 -10.863281 17.40625 -10.46875 C 17.820312 -10.070312 18.523438 -9.875 19.515625 -9.875 Z M 22.890625 -9.875 "/></g></g></g><g fill="rgb(15.289307%, 27.059937%, 59.609985%)" fill-opacity="1"><g transform="translate(177.037488, 65.59154)"><g><path d="M 1.421875 -16.625 C 1.421875 -20.050781 2.039062 -23.046875 3.28125 -25.609375 C 4.519531 -28.171875 6.210938 -30.140625 8.359375 -31.515625 C 10.515625 -32.898438 12.910156 -33.59375 15.546875 -33.59375 C 17.835938 -33.59375 19.8125 -33.140625 21.46875 -32.234375 C 23.125 -31.328125 24.40625 -30.101562 25.3125 -28.5625 L 25.3125 -33.171875 L 36.90625 -33.171875 L 36.90625 0 L 25.3125 0 L 25.3125 -4.609375 C 24.40625 -3.078125 23.113281 -1.859375 21.4375 -0.953125 C 19.757812 -0.046875 17.796875 0.40625 15.546875 0.40625 C 12.910156 0.40625 10.515625 -0.28125 8.359375 -1.65625 C 6.210938 -3.03125 4.519531 -5.007812 3.28125 -7.59375 C 2.039062 -10.175781 1.421875 -13.1875 1.421875 -16.625 Z M 25.3125 -16.625 C 25.3125 -18.75 24.726562 -20.421875 23.5625 -21.640625 C 22.40625 -22.867188 20.976562 -23.484375 19.28125 -23.484375 C 17.539062 -23.484375 16.097656 -22.878906 14.953125 -21.671875 C 13.816406 -20.472656 13.25 -18.789062 13.25 -16.625 C 13.25 -14.488281 13.816406 -12.800781 14.953125 -11.5625 C 16.097656 -10.320312 17.539062 -9.703125 19.28125 -9.703125 C 20.976562 -9.703125 22.40625 -10.3125 23.5625 -11.53125 C 24.726562 -12.75 25.3125 -14.445312 25.3125 -16.625 Z M 25.3125 -16.625 "/></g></g></g><g fill="rgb(15.289307%, 27.059937%, 59.609985%)" fill-opacity="1"><g transform="translate(217.252999, 65.59154)"><g/></g></g><g fill="rgb(15.289307%, 27.059937%, 59.609985%)" fill-opacity="1"><g transform="translate(228.548822, 65.59154)"><g><path d="M 1.421875 -16.625 C 1.421875 -20.050781 2.039062 -23.046875 3.28125 -25.609375 C 4.519531 -28.171875 6.210938 -30.140625 8.359375 -31.515625 C 10.515625 -32.898438 12.910156 -33.59375 15.546875 -33.59375 C 17.835938 -33.59375 19.8125 -33.140625 21.46875 -32.234375 C 23.125 -31.328125 24.40625 -30.101562 25.3125 -28.5625 L 25.3125 -33.171875 L 36.90625 -33.171875 L 36.90625 0 L 25.3125 0 L 25.3125 -4.609375 C 24.40625 -3.078125 23.113281 -1.859375 21.4375 -0.953125 C 19.757812 -0.046875 17.796875 0.40625 15.546875 0.40625 C 12.910156 0.40625 10.515625 -0.28125 8.359375 -1.65625 C 6.210938 -3.03125 4.519531 -5.007812 3.28125 -7.59375 C 2.039062 -10.175781 1.421875 -13.1875 1.421875 -16.625 Z M 25.3125 -16.625 C 25.3125 -18.75 24.726562 -20.421875 23.5625 -21.640625 C 22.40625 -22.867188 20.976562 -23.484375 19.28125 -23.484375 C 17.539062 -23.484375 16.097656 -22.878906 14.953125 -21.671875 C 13.816406 -20.472656 13.25 -18.789062 13.25 -16.625 C 13.25 -14.488281 13.816406 -12.800781 14.953125 -11.5625 C 16.097656 -10.320312 17.539062 -9.703125 19.28125 -9.703125 C 20.976562 -9.703125 22.40625 -10.3125 23.5625 -11.53125 C 24.726562 -12.75 25.3125 -14.445312 25.3125 -16.625 Z M 25.3125 -16.625 "/></g></g></g><g fill="rgb(15.289307%, 27.059937%, 59.609985%)" fill-opacity="1"><g transform="translate(268.764321, 65.59154)"><g><path d="M 9.171875 -36.25 C 7.117188 -36.25 5.46875 -36.8125 4.21875 -37.9375 C 2.976562 -39.0625 2.359375 -40.472656 2.359375 -42.171875 C 2.359375 -43.898438 2.976562 -45.335938 4.21875 -46.484375 C 5.46875 -47.628906 7.117188 -48.203125 9.171875 -48.203125 C 11.179688 -48.203125 12.804688 -47.628906 14.046875 -46.484375 C 15.285156 -45.335938 15.90625 -43.898438 15.90625 -42.171875 C 15.90625 -40.472656 15.285156 -39.0625 14.046875 -37.9375 C 12.804688 -36.8125 11.179688 -36.25 9.171875 -36.25 Z M 14.90625 -33.171875 L 14.90625 0 L 3.3125 0 L 3.3125 -33.171875 Z M 14.90625 -33.171875 "/></g></g></g></svg>